M48
INCH
T1C0.0374
T2C0.0394
T3C0.0512
T4C0.0630
T5C0.2047
%
G90
G05
T1
X4.8154Y-4.2331
X4.9138Y-4.2331
X5.0122Y-4.2331
X5.1106Y-4.2331
X5.2091Y-4.2331
X5.3075Y-4.2331
T2
X4.9063Y-3.3433
X5.2134Y-3.3433
X5.6461Y-4.0776
X5.9531Y-4.0776
X4.178Y-4.0862
X4.485Y-4.0862
X4.1665Y-3.352
X4.4736Y-3.352
X4.915Y-4.0831
X5.222Y-4.0831
X5.6433Y-3.3433
X5.9504Y-3.3433
T3
X5.6125Y-2.848
X5.8125Y-2.7655
X6.01Y-2.848
X5.6125Y-3.598
X5.8125Y-3.5155
X6.01Y-3.598
X4.1125Y-3.6
X4.3125Y-3.5175
X4.51Y-3.6
X4.8625Y-2.848
X5.0625Y-2.7655
X5.26Y-2.848
X4.8625Y-3.598
X5.0625Y-3.5155
X5.26Y-3.598
X4.1125Y-2.848
X4.3125Y-2.7655
X4.51Y-2.848
T4
X5.6155Y-3.192
X6.0095Y-3.195
X5.6155Y-3.942
X6.0095Y-3.945
X4.1155Y-3.944
X4.5095Y-3.947
X4.8655Y-3.192
X5.2595Y-3.195
X4.8655Y-3.942
X5.2595Y-3.945
X4.1155Y-3.192
X4.5095Y-3.195
T5
X5.8125Y-2.998
X5.8125Y-3.748
X4.3125Y-3.75
X5.0625Y-2.998
X5.0625Y-3.748
X4.3125Y-2.998
T0
M30
