G04 #@! TF.GenerationSoftware,KiCad,Pcbnew,(5.1.5-0-10_14)*
G04 #@! TF.CreationDate,2020-10-11T12:28:21+03:00*
G04 #@! TF.ProjectId,LogiMech,4c6f6769-4d65-4636-982e-6b696361645f,rev?*
G04 #@! TF.SameCoordinates,Original*
G04 #@! TF.FileFunction,Legend,Bot*
G04 #@! TF.FilePolarity,Positive*
%FSLAX46Y46*%
G04 Gerber Fmt 4.6, Leading zero omitted, Abs format (unit mm)*
G04 Created by KiCad (PCBNEW (5.1.5-0-10_14)) date 2020-10-11 12:28:21*
%MOMM*%
%LPD*%
G04 APERTURE LIST*
%ADD10C,0.010000*%
G04 APERTURE END LIST*
D10*
G36*
X131257235Y-102638487D02*
G01*
X131202381Y-102687896D01*
X131169127Y-102755485D01*
X131164000Y-102794598D01*
X131181362Y-102868894D01*
X131226414Y-102923191D01*
X131288610Y-102953043D01*
X131357401Y-102954006D01*
X131422239Y-102921633D01*
X131435478Y-102909011D01*
X131471938Y-102844332D01*
X131476784Y-102772068D01*
X131454348Y-102703352D01*
X131408962Y-102649318D01*
X131344959Y-102621100D01*
X131322750Y-102619333D01*
X131257235Y-102638487D01*
G37*
X131257235Y-102638487D02*
X131202381Y-102687896D01*
X131169127Y-102755485D01*
X131164000Y-102794598D01*
X131181362Y-102868894D01*
X131226414Y-102923191D01*
X131288610Y-102953043D01*
X131357401Y-102954006D01*
X131422239Y-102921633D01*
X131435478Y-102909011D01*
X131471938Y-102844332D01*
X131476784Y-102772068D01*
X131454348Y-102703352D01*
X131408962Y-102649318D01*
X131344959Y-102621100D01*
X131322750Y-102619333D01*
X131257235Y-102638487D01*
G36*
X123295232Y-102601826D02*
G01*
X123254673Y-102613201D01*
X123247797Y-102624625D01*
X123250410Y-102652352D01*
X123257674Y-102715876D01*
X123268840Y-102809005D01*
X123283158Y-102925550D01*
X123299881Y-103059320D01*
X123311167Y-103148500D01*
X123328921Y-103288234D01*
X123344760Y-103413074D01*
X123357947Y-103517195D01*
X123367744Y-103594768D01*
X123373414Y-103639967D01*
X123374537Y-103649227D01*
X123357562Y-103647494D01*
X123335674Y-103642340D01*
X123307706Y-103624329D01*
X123256453Y-103581444D01*
X123188086Y-103519215D01*
X123108778Y-103443172D01*
X123066160Y-103400905D01*
X122835639Y-103169667D01*
X122560361Y-103169667D01*
X122830709Y-103440615D01*
X123101056Y-103711564D01*
X122970255Y-103932740D01*
X122910979Y-104032826D01*
X122851753Y-104132580D01*
X122800236Y-104219117D01*
X122769620Y-104270333D01*
X122699786Y-104386750D01*
X122817898Y-104393185D01*
X122888130Y-104395012D01*
X122942745Y-104392847D01*
X122962854Y-104389319D01*
X122982618Y-104368358D01*
X123019263Y-104317437D01*
X123068347Y-104243166D01*
X123125431Y-104152157D01*
X123155593Y-104102426D01*
X123227195Y-103986871D01*
X123285722Y-103900373D01*
X123329124Y-103845761D01*
X123355348Y-103825867D01*
X123356047Y-103825833D01*
X123373372Y-103833617D01*
X123387222Y-103861519D01*
X123399571Y-103916358D01*
X123412395Y-104004959D01*
X123415787Y-104032208D01*
X123428113Y-104131370D01*
X123439996Y-104223780D01*
X123449593Y-104295221D01*
X123452856Y-104317958D01*
X123464744Y-104397333D01*
X123717055Y-104397333D01*
X123704423Y-104317958D01*
X123698973Y-104278603D01*
X123689489Y-104204616D01*
X123676638Y-104101558D01*
X123661083Y-103974993D01*
X123643490Y-103830481D01*
X123624525Y-103673585D01*
X123604852Y-103509866D01*
X123585136Y-103344885D01*
X123566042Y-103184205D01*
X123548235Y-103033387D01*
X123532381Y-102897994D01*
X123519145Y-102783586D01*
X123509191Y-102695725D01*
X123503184Y-102639974D01*
X123501667Y-102622342D01*
X123481358Y-102607459D01*
X123422974Y-102599414D01*
X123374667Y-102598167D01*
X123295232Y-102601826D01*
G37*
X123295232Y-102601826D02*
X123254673Y-102613201D01*
X123247797Y-102624625D01*
X123250410Y-102652352D01*
X123257674Y-102715876D01*
X123268840Y-102809005D01*
X123283158Y-102925550D01*
X123299881Y-103059320D01*
X123311167Y-103148500D01*
X123328921Y-103288234D01*
X123344760Y-103413074D01*
X123357947Y-103517195D01*
X123367744Y-103594768D01*
X123373414Y-103639967D01*
X123374537Y-103649227D01*
X123357562Y-103647494D01*
X123335674Y-103642340D01*
X123307706Y-103624329D01*
X123256453Y-103581444D01*
X123188086Y-103519215D01*
X123108778Y-103443172D01*
X123066160Y-103400905D01*
X122835639Y-103169667D01*
X122560361Y-103169667D01*
X122830709Y-103440615D01*
X123101056Y-103711564D01*
X122970255Y-103932740D01*
X122910979Y-104032826D01*
X122851753Y-104132580D01*
X122800236Y-104219117D01*
X122769620Y-104270333D01*
X122699786Y-104386750D01*
X122817898Y-104393185D01*
X122888130Y-104395012D01*
X122942745Y-104392847D01*
X122962854Y-104389319D01*
X122982618Y-104368358D01*
X123019263Y-104317437D01*
X123068347Y-104243166D01*
X123125431Y-104152157D01*
X123155593Y-104102426D01*
X123227195Y-103986871D01*
X123285722Y-103900373D01*
X123329124Y-103845761D01*
X123355348Y-103825867D01*
X123356047Y-103825833D01*
X123373372Y-103833617D01*
X123387222Y-103861519D01*
X123399571Y-103916358D01*
X123412395Y-104004959D01*
X123415787Y-104032208D01*
X123428113Y-104131370D01*
X123439996Y-104223780D01*
X123449593Y-104295221D01*
X123452856Y-104317958D01*
X123464744Y-104397333D01*
X123717055Y-104397333D01*
X123704423Y-104317958D01*
X123698973Y-104278603D01*
X123689489Y-104204616D01*
X123676638Y-104101558D01*
X123661083Y-103974993D01*
X123643490Y-103830481D01*
X123624525Y-103673585D01*
X123604852Y-103509866D01*
X123585136Y-103344885D01*
X123566042Y-103184205D01*
X123548235Y-103033387D01*
X123532381Y-102897994D01*
X123519145Y-102783586D01*
X123509191Y-102695725D01*
X123503184Y-102639974D01*
X123501667Y-102622342D01*
X123481358Y-102607459D01*
X123422974Y-102599414D01*
X123374667Y-102598167D01*
X123295232Y-102601826D01*
G36*
X123773078Y-103157192D02*
G01*
X123746690Y-103186029D01*
X123740175Y-103242648D01*
X123745227Y-103301069D01*
X123759720Y-103417063D01*
X123860146Y-103407413D01*
X123921005Y-103404312D01*
X123963986Y-103413992D01*
X124006328Y-103443155D01*
X124045605Y-103479507D01*
X124104532Y-103547824D01*
X124152255Y-103631491D01*
X124190885Y-103736711D01*
X124222533Y-103869683D01*
X124249309Y-104036611D01*
X124257755Y-104102831D01*
X124293399Y-104397333D01*
X124416116Y-104397333D01*
X124494768Y-104393333D01*
X124533954Y-104381026D01*
X124539453Y-104370875D01*
X124537252Y-104343655D01*
X124530729Y-104280036D01*
X124520505Y-104185660D01*
X124507203Y-104066172D01*
X124491445Y-103927214D01*
X124473851Y-103774431D01*
X124471721Y-103756082D01*
X124403369Y-103167748D01*
X124296476Y-103173999D01*
X124189584Y-103180250D01*
X124193514Y-103442000D01*
X124136209Y-103364042D01*
X124041006Y-103254536D01*
X123944992Y-103182736D01*
X123850870Y-103150500D01*
X123823081Y-103148824D01*
X123773078Y-103157192D01*
G37*
X123773078Y-103157192D02*
X123746690Y-103186029D01*
X123740175Y-103242648D01*
X123745227Y-103301069D01*
X123759720Y-103417063D01*
X123860146Y-103407413D01*
X123921005Y-103404312D01*
X123963986Y-103413992D01*
X124006328Y-103443155D01*
X124045605Y-103479507D01*
X124104532Y-103547824D01*
X124152255Y-103631491D01*
X124190885Y-103736711D01*
X124222533Y-103869683D01*
X124249309Y-104036611D01*
X124257755Y-104102831D01*
X124293399Y-104397333D01*
X124416116Y-104397333D01*
X124494768Y-104393333D01*
X124533954Y-104381026D01*
X124539453Y-104370875D01*
X124537252Y-104343655D01*
X124530729Y-104280036D01*
X124520505Y-104185660D01*
X124507203Y-104066172D01*
X124491445Y-103927214D01*
X124473851Y-103774431D01*
X124471721Y-103756082D01*
X124403369Y-103167748D01*
X124296476Y-103173999D01*
X124189584Y-103180250D01*
X124193514Y-103442000D01*
X124136209Y-103364042D01*
X124041006Y-103254536D01*
X123944992Y-103182736D01*
X123850870Y-103150500D01*
X123823081Y-103148824D01*
X123773078Y-103157192D01*
G36*
X127320030Y-103174155D02*
G01*
X127276506Y-103186566D01*
X127262569Y-103199098D01*
X127256304Y-103228345D01*
X127245447Y-103292668D01*
X127231062Y-103385186D01*
X127214214Y-103499021D01*
X127195968Y-103627293D01*
X127193056Y-103648225D01*
X127175122Y-103774160D01*
X127158732Y-103882964D01*
X127144848Y-103968762D01*
X127134430Y-104025675D01*
X127128439Y-104047825D01*
X127127800Y-104047419D01*
X127117841Y-104022624D01*
X127093937Y-103964790D01*
X127058579Y-103879891D01*
X127014256Y-103773899D01*
X126963459Y-103652788D01*
X126942782Y-103603583D01*
X126764801Y-103180250D01*
X126539084Y-103180250D01*
X126471995Y-103571833D01*
X126450446Y-103700827D01*
X126431522Y-103820219D01*
X126416437Y-103921846D01*
X126406408Y-103997543D01*
X126402683Y-104037500D01*
X126400297Y-104071235D01*
X126394025Y-104077594D01*
X126381044Y-104052748D01*
X126358531Y-103992871D01*
X126348050Y-103963417D01*
X126321500Y-103890179D01*
X126283890Y-103788862D01*
X126239488Y-103670847D01*
X126192561Y-103547517D01*
X126173463Y-103497750D01*
X126051287Y-103180250D01*
X125930060Y-103173902D01*
X125864867Y-103171800D01*
X125820860Y-103172893D01*
X125808834Y-103175859D01*
X125816710Y-103196700D01*
X125839016Y-103251770D01*
X125873771Y-103336277D01*
X125918992Y-103445429D01*
X125972698Y-103574434D01*
X126032905Y-103718498D01*
X126060960Y-103785457D01*
X126313085Y-104386750D01*
X126429475Y-104393041D01*
X126469194Y-104396430D01*
X126499223Y-104398345D01*
X126521786Y-104393757D01*
X126539104Y-104377637D01*
X126553401Y-104344956D01*
X126566899Y-104290684D01*
X126581822Y-104209792D01*
X126600392Y-104097250D01*
X126624034Y-103952833D01*
X126643758Y-103837307D01*
X126662341Y-103734509D01*
X126678222Y-103652646D01*
X126689837Y-103599923D01*
X126693804Y-103586415D01*
X126704449Y-103584754D01*
X126724712Y-103612543D01*
X126755792Y-103672143D01*
X126798886Y-103765920D01*
X126855194Y-103896237D01*
X126876286Y-103946248D01*
X126927976Y-104068339D01*
X126975192Y-104177920D01*
X127015144Y-104268667D01*
X127045037Y-104334254D01*
X127062080Y-104368353D01*
X127063729Y-104370875D01*
X127095980Y-104386695D01*
X127154824Y-104396087D01*
X127187923Y-104397333D01*
X127257863Y-104392023D01*
X127296247Y-104377301D01*
X127300612Y-104370875D01*
X127306720Y-104342631D01*
X127318591Y-104279490D01*
X127335078Y-104188153D01*
X127355031Y-104075321D01*
X127377300Y-103947695D01*
X127400736Y-103811974D01*
X127424191Y-103674861D01*
X127446513Y-103543056D01*
X127466555Y-103423260D01*
X127483167Y-103322173D01*
X127495200Y-103246496D01*
X127501504Y-103202930D01*
X127502167Y-103195746D01*
X127483712Y-103179268D01*
X127437776Y-103170309D01*
X127378501Y-103168671D01*
X127320030Y-103174155D01*
G37*
X127320030Y-103174155D02*
X127276506Y-103186566D01*
X127262569Y-103199098D01*
X127256304Y-103228345D01*
X127245447Y-103292668D01*
X127231062Y-103385186D01*
X127214214Y-103499021D01*
X127195968Y-103627293D01*
X127193056Y-103648225D01*
X127175122Y-103774160D01*
X127158732Y-103882964D01*
X127144848Y-103968762D01*
X127134430Y-104025675D01*
X127128439Y-104047825D01*
X127127800Y-104047419D01*
X127117841Y-104022624D01*
X127093937Y-103964790D01*
X127058579Y-103879891D01*
X127014256Y-103773899D01*
X126963459Y-103652788D01*
X126942782Y-103603583D01*
X126764801Y-103180250D01*
X126539084Y-103180250D01*
X126471995Y-103571833D01*
X126450446Y-103700827D01*
X126431522Y-103820219D01*
X126416437Y-103921846D01*
X126406408Y-103997543D01*
X126402683Y-104037500D01*
X126400297Y-104071235D01*
X126394025Y-104077594D01*
X126381044Y-104052748D01*
X126358531Y-103992871D01*
X126348050Y-103963417D01*
X126321500Y-103890179D01*
X126283890Y-103788862D01*
X126239488Y-103670847D01*
X126192561Y-103547517D01*
X126173463Y-103497750D01*
X126051287Y-103180250D01*
X125930060Y-103173902D01*
X125864867Y-103171800D01*
X125820860Y-103172893D01*
X125808834Y-103175859D01*
X125816710Y-103196700D01*
X125839016Y-103251770D01*
X125873771Y-103336277D01*
X125918992Y-103445429D01*
X125972698Y-103574434D01*
X126032905Y-103718498D01*
X126060960Y-103785457D01*
X126313085Y-104386750D01*
X126429475Y-104393041D01*
X126469194Y-104396430D01*
X126499223Y-104398345D01*
X126521786Y-104393757D01*
X126539104Y-104377637D01*
X126553401Y-104344956D01*
X126566899Y-104290684D01*
X126581822Y-104209792D01*
X126600392Y-104097250D01*
X126624034Y-103952833D01*
X126643758Y-103837307D01*
X126662341Y-103734509D01*
X126678222Y-103652646D01*
X126689837Y-103599923D01*
X126693804Y-103586415D01*
X126704449Y-103584754D01*
X126724712Y-103612543D01*
X126755792Y-103672143D01*
X126798886Y-103765920D01*
X126855194Y-103896237D01*
X126876286Y-103946248D01*
X126927976Y-104068339D01*
X126975192Y-104177920D01*
X127015144Y-104268667D01*
X127045037Y-104334254D01*
X127062080Y-104368353D01*
X127063729Y-104370875D01*
X127095980Y-104386695D01*
X127154824Y-104396087D01*
X127187923Y-104397333D01*
X127257863Y-104392023D01*
X127296247Y-104377301D01*
X127300612Y-104370875D01*
X127306720Y-104342631D01*
X127318591Y-104279490D01*
X127335078Y-104188153D01*
X127355031Y-104075321D01*
X127377300Y-103947695D01*
X127400736Y-103811974D01*
X127424191Y-103674861D01*
X127446513Y-103543056D01*
X127466555Y-103423260D01*
X127483167Y-103322173D01*
X127495200Y-103246496D01*
X127501504Y-103202930D01*
X127502167Y-103195746D01*
X127483712Y-103179268D01*
X127437776Y-103170309D01*
X127378501Y-103168671D01*
X127320030Y-103174155D01*
G36*
X129396908Y-102599182D02*
G01*
X129359758Y-102604659D01*
X129346994Y-102618240D01*
X129349647Y-102643567D01*
X129350160Y-102645791D01*
X129355026Y-102676710D01*
X129364254Y-102744914D01*
X129377247Y-102845649D01*
X129393409Y-102974156D01*
X129412144Y-103125681D01*
X129432855Y-103295468D01*
X129454947Y-103478759D01*
X129462914Y-103545375D01*
X129564586Y-104397333D01*
X129686960Y-104397333D01*
X129756558Y-104395552D01*
X129793595Y-104388079D01*
X129807768Y-104371720D01*
X129809334Y-104357019D01*
X129806860Y-104327764D01*
X129799887Y-104262125D01*
X129789088Y-104165738D01*
X129775138Y-104044235D01*
X129758708Y-103903249D01*
X129740472Y-103748414D01*
X129721104Y-103585364D01*
X129701277Y-103419732D01*
X129681664Y-103257152D01*
X129662939Y-103103256D01*
X129645775Y-102963679D01*
X129630845Y-102844053D01*
X129618822Y-102750013D01*
X129610380Y-102687191D01*
X129607336Y-102666958D01*
X129599287Y-102629028D01*
X129584226Y-102608469D01*
X129551331Y-102599961D01*
X129489779Y-102598183D01*
X129467413Y-102598167D01*
X129396908Y-102599182D01*
G37*
X129396908Y-102599182D02*
X129359758Y-102604659D01*
X129346994Y-102618240D01*
X129349647Y-102643567D01*
X129350160Y-102645791D01*
X129355026Y-102676710D01*
X129364254Y-102744914D01*
X129377247Y-102845649D01*
X129393409Y-102974156D01*
X129412144Y-103125681D01*
X129432855Y-103295468D01*
X129454947Y-103478759D01*
X129462914Y-103545375D01*
X129564586Y-104397333D01*
X129686960Y-104397333D01*
X129756558Y-104395552D01*
X129793595Y-104388079D01*
X129807768Y-104371720D01*
X129809334Y-104357019D01*
X129806860Y-104327764D01*
X129799887Y-104262125D01*
X129789088Y-104165738D01*
X129775138Y-104044235D01*
X129758708Y-103903249D01*
X129740472Y-103748414D01*
X129721104Y-103585364D01*
X129701277Y-103419732D01*
X129681664Y-103257152D01*
X129662939Y-103103256D01*
X129645775Y-102963679D01*
X129630845Y-102844053D01*
X129618822Y-102750013D01*
X129610380Y-102687191D01*
X129607336Y-102666958D01*
X129599287Y-102629028D01*
X129584226Y-102608469D01*
X129551331Y-102599961D01*
X129489779Y-102598183D01*
X129467413Y-102598167D01*
X129396908Y-102599182D01*
G36*
X132514357Y-102600592D02*
G01*
X132468952Y-102606892D01*
X132455586Y-102614042D01*
X132458127Y-102639393D01*
X132464893Y-102699447D01*
X132475036Y-102786879D01*
X132487709Y-102894362D01*
X132497818Y-102979167D01*
X132511768Y-103096673D01*
X132523756Y-103199545D01*
X132532940Y-103280401D01*
X132538477Y-103331854D01*
X132539733Y-103346484D01*
X132525881Y-103344741D01*
X132490480Y-103320148D01*
X132465162Y-103298989D01*
X132341181Y-103209585D01*
X132217054Y-103160323D01*
X132114854Y-103148500D01*
X132045914Y-103151950D01*
X131997630Y-103167835D01*
X131950404Y-103204456D01*
X131925475Y-103228711D01*
X131888190Y-103270009D01*
X131860219Y-103313429D01*
X131841085Y-103364570D01*
X131830310Y-103429027D01*
X131827415Y-103512399D01*
X131831922Y-103620281D01*
X131843354Y-103758272D01*
X131861232Y-103931967D01*
X131863572Y-103953498D01*
X131911983Y-104397333D01*
X132178942Y-104397333D01*
X132168529Y-104339125D01*
X132160176Y-104284488D01*
X132148959Y-104200079D01*
X132135876Y-104094689D01*
X132121930Y-103977108D01*
X132108119Y-103856124D01*
X132095444Y-103740528D01*
X132084906Y-103639109D01*
X132077504Y-103560658D01*
X132074239Y-103513963D01*
X132074167Y-103509913D01*
X132092568Y-103437540D01*
X132140974Y-103384235D01*
X132209191Y-103360526D01*
X132219158Y-103360167D01*
X132296966Y-103379877D01*
X132376306Y-103434259D01*
X132451994Y-103516184D01*
X132518847Y-103618526D01*
X132571682Y-103734159D01*
X132605315Y-103855955D01*
X132611722Y-103899917D01*
X132621192Y-103983449D01*
X132633675Y-104088526D01*
X132646738Y-104194711D01*
X132648932Y-104212125D01*
X132672372Y-104397333D01*
X132796603Y-104397333D01*
X132862753Y-104394299D01*
X132907816Y-104386428D01*
X132920834Y-104377709D01*
X132918397Y-104353084D01*
X132911524Y-104291942D01*
X132900875Y-104199793D01*
X132887105Y-104082146D01*
X132870875Y-103944510D01*
X132852841Y-103792394D01*
X132833662Y-103631308D01*
X132813996Y-103466760D01*
X132794500Y-103304260D01*
X132775834Y-103149316D01*
X132758654Y-103007439D01*
X132743619Y-102884137D01*
X132731387Y-102784920D01*
X132722616Y-102715297D01*
X132719027Y-102688125D01*
X132706573Y-102598167D01*
X132580870Y-102598167D01*
X132514357Y-102600592D01*
G37*
X132514357Y-102600592D02*
X132468952Y-102606892D01*
X132455586Y-102614042D01*
X132458127Y-102639393D01*
X132464893Y-102699447D01*
X132475036Y-102786879D01*
X132487709Y-102894362D01*
X132497818Y-102979167D01*
X132511768Y-103096673D01*
X132523756Y-103199545D01*
X132532940Y-103280401D01*
X132538477Y-103331854D01*
X132539733Y-103346484D01*
X132525881Y-103344741D01*
X132490480Y-103320148D01*
X132465162Y-103298989D01*
X132341181Y-103209585D01*
X132217054Y-103160323D01*
X132114854Y-103148500D01*
X132045914Y-103151950D01*
X131997630Y-103167835D01*
X131950404Y-103204456D01*
X131925475Y-103228711D01*
X131888190Y-103270009D01*
X131860219Y-103313429D01*
X131841085Y-103364570D01*
X131830310Y-103429027D01*
X131827415Y-103512399D01*
X131831922Y-103620281D01*
X131843354Y-103758272D01*
X131861232Y-103931967D01*
X131863572Y-103953498D01*
X131911983Y-104397333D01*
X132178942Y-104397333D01*
X132168529Y-104339125D01*
X132160176Y-104284488D01*
X132148959Y-104200079D01*
X132135876Y-104094689D01*
X132121930Y-103977108D01*
X132108119Y-103856124D01*
X132095444Y-103740528D01*
X132084906Y-103639109D01*
X132077504Y-103560658D01*
X132074239Y-103513963D01*
X132074167Y-103509913D01*
X132092568Y-103437540D01*
X132140974Y-103384235D01*
X132209191Y-103360526D01*
X132219158Y-103360167D01*
X132296966Y-103379877D01*
X132376306Y-103434259D01*
X132451994Y-103516184D01*
X132518847Y-103618526D01*
X132571682Y-103734159D01*
X132605315Y-103855955D01*
X132611722Y-103899917D01*
X132621192Y-103983449D01*
X132633675Y-104088526D01*
X132646738Y-104194711D01*
X132648932Y-104212125D01*
X132672372Y-104397333D01*
X132796603Y-104397333D01*
X132862753Y-104394299D01*
X132907816Y-104386428D01*
X132920834Y-104377709D01*
X132918397Y-104353084D01*
X132911524Y-104291942D01*
X132900875Y-104199793D01*
X132887105Y-104082146D01*
X132870875Y-103944510D01*
X132852841Y-103792394D01*
X132833662Y-103631308D01*
X132813996Y-103466760D01*
X132794500Y-103304260D01*
X132775834Y-103149316D01*
X132758654Y-103007439D01*
X132743619Y-102884137D01*
X132731387Y-102784920D01*
X132722616Y-102715297D01*
X132719027Y-102688125D01*
X132706573Y-102598167D01*
X132580870Y-102598167D01*
X132514357Y-102600592D01*
G36*
X121950407Y-103156114D02*
G01*
X121835652Y-103182344D01*
X121743078Y-103228326D01*
X121722266Y-103245018D01*
X121690667Y-103278168D01*
X121686216Y-103305900D01*
X121710218Y-103342102D01*
X121733835Y-103368301D01*
X121786336Y-103424951D01*
X121870575Y-103381975D01*
X121972494Y-103346082D01*
X122071169Y-103339939D01*
X122157971Y-103361782D01*
X122224270Y-103409851D01*
X122254732Y-103460410D01*
X122262095Y-103517382D01*
X122235954Y-103568597D01*
X122173445Y-103617251D01*
X122071708Y-103666539D01*
X122069112Y-103667612D01*
X121935405Y-103734288D01*
X121842092Y-103808065D01*
X121787608Y-103890417D01*
X121772567Y-103946988D01*
X121777195Y-104063256D01*
X121818163Y-104176392D01*
X121889928Y-104277108D01*
X121986946Y-104356115D01*
X122030402Y-104379024D01*
X122120196Y-104405048D01*
X122230697Y-104416294D01*
X122343698Y-104412520D01*
X122440992Y-104393484D01*
X122464349Y-104384782D01*
X122528124Y-104350571D01*
X122582581Y-104311044D01*
X122585347Y-104308505D01*
X122632413Y-104264289D01*
X122589349Y-104203811D01*
X122542888Y-104157402D01*
X122489898Y-104146620D01*
X122422227Y-104170696D01*
X122396220Y-104185587D01*
X122310548Y-104217915D01*
X122210234Y-104227140D01*
X122116585Y-104211947D01*
X122096510Y-104204087D01*
X122041385Y-104157990D01*
X122009288Y-104089481D01*
X122007122Y-104015290D01*
X122011761Y-103998670D01*
X122032946Y-103963825D01*
X122075405Y-103930636D01*
X122147083Y-103893571D01*
X122189775Y-103874672D01*
X122311999Y-103816734D01*
X122397805Y-103760636D01*
X122452282Y-103699898D01*
X122480523Y-103628042D01*
X122487615Y-103538587D01*
X122485771Y-103497853D01*
X122459688Y-103401272D01*
X122400613Y-103309157D01*
X122317512Y-103231594D01*
X122219352Y-103178672D01*
X122195204Y-103170939D01*
X122074528Y-103151644D01*
X121950407Y-103156114D01*
G37*
X121950407Y-103156114D02*
X121835652Y-103182344D01*
X121743078Y-103228326D01*
X121722266Y-103245018D01*
X121690667Y-103278168D01*
X121686216Y-103305900D01*
X121710218Y-103342102D01*
X121733835Y-103368301D01*
X121786336Y-103424951D01*
X121870575Y-103381975D01*
X121972494Y-103346082D01*
X122071169Y-103339939D01*
X122157971Y-103361782D01*
X122224270Y-103409851D01*
X122254732Y-103460410D01*
X122262095Y-103517382D01*
X122235954Y-103568597D01*
X122173445Y-103617251D01*
X122071708Y-103666539D01*
X122069112Y-103667612D01*
X121935405Y-103734288D01*
X121842092Y-103808065D01*
X121787608Y-103890417D01*
X121772567Y-103946988D01*
X121777195Y-104063256D01*
X121818163Y-104176392D01*
X121889928Y-104277108D01*
X121986946Y-104356115D01*
X122030402Y-104379024D01*
X122120196Y-104405048D01*
X122230697Y-104416294D01*
X122343698Y-104412520D01*
X122440992Y-104393484D01*
X122464349Y-104384782D01*
X122528124Y-104350571D01*
X122582581Y-104311044D01*
X122585347Y-104308505D01*
X122632413Y-104264289D01*
X122589349Y-104203811D01*
X122542888Y-104157402D01*
X122489898Y-104146620D01*
X122422227Y-104170696D01*
X122396220Y-104185587D01*
X122310548Y-104217915D01*
X122210234Y-104227140D01*
X122116585Y-104211947D01*
X122096510Y-104204087D01*
X122041385Y-104157990D01*
X122009288Y-104089481D01*
X122007122Y-104015290D01*
X122011761Y-103998670D01*
X122032946Y-103963825D01*
X122075405Y-103930636D01*
X122147083Y-103893571D01*
X122189775Y-103874672D01*
X122311999Y-103816734D01*
X122397805Y-103760636D01*
X122452282Y-103699898D01*
X122480523Y-103628042D01*
X122487615Y-103538587D01*
X122485771Y-103497853D01*
X122459688Y-103401272D01*
X122400613Y-103309157D01*
X122317512Y-103231594D01*
X122219352Y-103178672D01*
X122195204Y-103170939D01*
X122074528Y-103151644D01*
X121950407Y-103156114D01*
G36*
X125048555Y-103156909D02*
G01*
X124938197Y-103195712D01*
X124842084Y-103263790D01*
X124765632Y-103361433D01*
X124719558Y-103469884D01*
X124690775Y-103629664D01*
X124696337Y-103788162D01*
X124732779Y-103940027D01*
X124796640Y-104079905D01*
X124884455Y-104202441D01*
X124992762Y-104302284D01*
X125118097Y-104374078D01*
X125256996Y-104412472D01*
X125332584Y-104417465D01*
X125413793Y-104412430D01*
X125487546Y-104400142D01*
X125523084Y-104389128D01*
X125593091Y-104343438D01*
X125665372Y-104272354D01*
X125727403Y-104190148D01*
X125766415Y-104111842D01*
X125780160Y-104039393D01*
X125785573Y-103936664D01*
X125784502Y-103884243D01*
X125535157Y-103884243D01*
X125530887Y-103994590D01*
X125510233Y-104082984D01*
X125502963Y-104098977D01*
X125444774Y-104172651D01*
X125366104Y-104209664D01*
X125268252Y-104209652D01*
X125187431Y-104186812D01*
X125129404Y-104147573D01*
X125070294Y-104079169D01*
X125019299Y-103993500D01*
X124997040Y-103940517D01*
X124956770Y-103789301D01*
X124945529Y-103650677D01*
X124963069Y-103530664D01*
X125009142Y-103435280D01*
X125018247Y-103423767D01*
X125060915Y-103382216D01*
X125108019Y-103363862D01*
X125167925Y-103360167D01*
X125274032Y-103376471D01*
X125362190Y-103427397D01*
X125436915Y-103515960D01*
X125460197Y-103555427D01*
X125498758Y-103651268D01*
X125524096Y-103765338D01*
X125535157Y-103884243D01*
X125784502Y-103884243D01*
X125783742Y-103847099D01*
X125776164Y-103743312D01*
X125762238Y-103663862D01*
X125737688Y-103590804D01*
X125706412Y-103522638D01*
X125624369Y-103391875D01*
X125524062Y-103288650D01*
X125410909Y-103213251D01*
X125290329Y-103165968D01*
X125167738Y-103147091D01*
X125048555Y-103156909D01*
G37*
X125048555Y-103156909D02*
X124938197Y-103195712D01*
X124842084Y-103263790D01*
X124765632Y-103361433D01*
X124719558Y-103469884D01*
X124690775Y-103629664D01*
X124696337Y-103788162D01*
X124732779Y-103940027D01*
X124796640Y-104079905D01*
X124884455Y-104202441D01*
X124992762Y-104302284D01*
X125118097Y-104374078D01*
X125256996Y-104412472D01*
X125332584Y-104417465D01*
X125413793Y-104412430D01*
X125487546Y-104400142D01*
X125523084Y-104389128D01*
X125593091Y-104343438D01*
X125665372Y-104272354D01*
X125727403Y-104190148D01*
X125766415Y-104111842D01*
X125780160Y-104039393D01*
X125785573Y-103936664D01*
X125784502Y-103884243D01*
X125535157Y-103884243D01*
X125530887Y-103994590D01*
X125510233Y-104082984D01*
X125502963Y-104098977D01*
X125444774Y-104172651D01*
X125366104Y-104209664D01*
X125268252Y-104209652D01*
X125187431Y-104186812D01*
X125129404Y-104147573D01*
X125070294Y-104079169D01*
X125019299Y-103993500D01*
X124997040Y-103940517D01*
X124956770Y-103789301D01*
X124945529Y-103650677D01*
X124963069Y-103530664D01*
X125009142Y-103435280D01*
X125018247Y-103423767D01*
X125060915Y-103382216D01*
X125108019Y-103363862D01*
X125167925Y-103360167D01*
X125274032Y-103376471D01*
X125362190Y-103427397D01*
X125436915Y-103515960D01*
X125460197Y-103555427D01*
X125498758Y-103651268D01*
X125524096Y-103765338D01*
X125535157Y-103884243D01*
X125784502Y-103884243D01*
X125783742Y-103847099D01*
X125776164Y-103743312D01*
X125762238Y-103663862D01*
X125737688Y-103590804D01*
X125706412Y-103522638D01*
X125624369Y-103391875D01*
X125524062Y-103288650D01*
X125410909Y-103213251D01*
X125290329Y-103165968D01*
X125167738Y-103147091D01*
X125048555Y-103156909D01*
G36*
X127806360Y-104107523D02*
G01*
X127749699Y-104144256D01*
X127734554Y-104165335D01*
X127713708Y-104239063D01*
X127725402Y-104307860D01*
X127762027Y-104365424D01*
X127815973Y-104405447D01*
X127879632Y-104421626D01*
X127945395Y-104407655D01*
X127989000Y-104376167D01*
X128027281Y-104311239D01*
X128032300Y-104236842D01*
X128006271Y-104166609D01*
X127951406Y-104114172D01*
X127946002Y-104111239D01*
X127877425Y-104095077D01*
X127806360Y-104107523D01*
G37*
X127806360Y-104107523D02*
X127749699Y-104144256D01*
X127734554Y-104165335D01*
X127713708Y-104239063D01*
X127725402Y-104307860D01*
X127762027Y-104365424D01*
X127815973Y-104405447D01*
X127879632Y-104421626D01*
X127945395Y-104407655D01*
X127989000Y-104376167D01*
X128027281Y-104311239D01*
X128032300Y-104236842D01*
X128006271Y-104166609D01*
X127951406Y-104114172D01*
X127946002Y-104111239D01*
X127877425Y-104095077D01*
X127806360Y-104107523D01*
G36*
X128354481Y-103160139D02*
G01*
X128271714Y-103175434D01*
X128212044Y-103196014D01*
X128188710Y-103214222D01*
X128188256Y-103239062D01*
X128192416Y-103300363D01*
X128200658Y-103392569D01*
X128212446Y-103510120D01*
X128227249Y-103647461D01*
X128244532Y-103799032D01*
X128246354Y-103814569D01*
X128314864Y-104397333D01*
X128414251Y-104397333D01*
X128479027Y-104393112D01*
X128516692Y-104374595D01*
X128534390Y-104333004D01*
X128539266Y-104259558D01*
X128539334Y-104243625D01*
X128539334Y-104156880D01*
X128615691Y-104246087D01*
X128676182Y-104306458D01*
X128743385Y-104358815D01*
X128773598Y-104376897D01*
X128854276Y-104404174D01*
X128948656Y-104416489D01*
X129035974Y-104411966D01*
X129068500Y-104403551D01*
X129150446Y-104351716D01*
X129214259Y-104265359D01*
X129257048Y-104149454D01*
X129273100Y-104051732D01*
X129271249Y-103938743D01*
X129014946Y-103938743D01*
X129014202Y-104023450D01*
X129009057Y-104077553D01*
X128996339Y-104112760D01*
X128972878Y-104140783D01*
X128956195Y-104155701D01*
X128887750Y-104198110D01*
X128819946Y-104201354D01*
X128751633Y-104172090D01*
X128685477Y-104113524D01*
X128621234Y-104021357D01*
X128562839Y-103904273D01*
X128514222Y-103770957D01*
X128479317Y-103630091D01*
X128466169Y-103541686D01*
X128456799Y-103463976D01*
X128447300Y-103401224D01*
X128439739Y-103367061D01*
X128448330Y-103347124D01*
X128487225Y-103338816D01*
X128546217Y-103341485D01*
X128615098Y-103354480D01*
X128683660Y-103377149D01*
X128698066Y-103383547D01*
X128820876Y-103463622D01*
X128915448Y-103573365D01*
X128979730Y-103709183D01*
X129011671Y-103867483D01*
X129014946Y-103938743D01*
X129271249Y-103938743D01*
X129270064Y-103866508D01*
X129227870Y-103690238D01*
X129149511Y-103528487D01*
X129037980Y-103386819D01*
X128896273Y-103270799D01*
X128832859Y-103233377D01*
X128739141Y-103189423D01*
X128651686Y-103164845D01*
X128546455Y-103152899D01*
X128545879Y-103152862D01*
X128449489Y-103151993D01*
X128354481Y-103160139D01*
G37*
X128354481Y-103160139D02*
X128271714Y-103175434D01*
X128212044Y-103196014D01*
X128188710Y-103214222D01*
X128188256Y-103239062D01*
X128192416Y-103300363D01*
X128200658Y-103392569D01*
X128212446Y-103510120D01*
X128227249Y-103647461D01*
X128244532Y-103799032D01*
X128246354Y-103814569D01*
X128314864Y-104397333D01*
X128414251Y-104397333D01*
X128479027Y-104393112D01*
X128516692Y-104374595D01*
X128534390Y-104333004D01*
X128539266Y-104259558D01*
X128539334Y-104243625D01*
X128539334Y-104156880D01*
X128615691Y-104246087D01*
X128676182Y-104306458D01*
X128743385Y-104358815D01*
X128773598Y-104376897D01*
X128854276Y-104404174D01*
X128948656Y-104416489D01*
X129035974Y-104411966D01*
X129068500Y-104403551D01*
X129150446Y-104351716D01*
X129214259Y-104265359D01*
X129257048Y-104149454D01*
X129273100Y-104051732D01*
X129271249Y-103938743D01*
X129014946Y-103938743D01*
X129014202Y-104023450D01*
X129009057Y-104077553D01*
X128996339Y-104112760D01*
X128972878Y-104140783D01*
X128956195Y-104155701D01*
X128887750Y-104198110D01*
X128819946Y-104201354D01*
X128751633Y-104172090D01*
X128685477Y-104113524D01*
X128621234Y-104021357D01*
X128562839Y-103904273D01*
X128514222Y-103770957D01*
X128479317Y-103630091D01*
X128466169Y-103541686D01*
X128456799Y-103463976D01*
X128447300Y-103401224D01*
X128439739Y-103367061D01*
X128448330Y-103347124D01*
X128487225Y-103338816D01*
X128546217Y-103341485D01*
X128615098Y-103354480D01*
X128683660Y-103377149D01*
X128698066Y-103383547D01*
X128820876Y-103463622D01*
X128915448Y-103573365D01*
X128979730Y-103709183D01*
X129011671Y-103867483D01*
X129014946Y-103938743D01*
X129271249Y-103938743D01*
X129270064Y-103866508D01*
X129227870Y-103690238D01*
X129149511Y-103528487D01*
X129037980Y-103386819D01*
X128896273Y-103270799D01*
X128832859Y-103233377D01*
X128739141Y-103189423D01*
X128651686Y-103164845D01*
X128546455Y-103152899D01*
X128545879Y-103152862D01*
X128449489Y-103151993D01*
X128354481Y-103160139D01*
G36*
X130359631Y-103156570D02*
G01*
X130239061Y-103191539D01*
X130133263Y-103256999D01*
X130049043Y-103352484D01*
X130028878Y-103387152D01*
X129983670Y-103516522D01*
X129969855Y-103662664D01*
X129985368Y-103816411D01*
X130028146Y-103968596D01*
X130096126Y-104110053D01*
X130187244Y-104231615D01*
X130227836Y-104270975D01*
X130346552Y-104351263D01*
X130480235Y-104400991D01*
X130618811Y-104418320D01*
X130752202Y-104401407D01*
X130816178Y-104378467D01*
X130906775Y-104316352D01*
X130984564Y-104222885D01*
X131041749Y-104108747D01*
X131061227Y-104042678D01*
X131070181Y-103945526D01*
X130820797Y-103945526D01*
X130800869Y-104052429D01*
X130758642Y-104135531D01*
X130696648Y-104191261D01*
X130617421Y-104216045D01*
X130523492Y-104206312D01*
X130433750Y-104168101D01*
X130380116Y-104120321D01*
X130325220Y-104040121D01*
X130306750Y-104005530D01*
X130272531Y-103929653D01*
X130251979Y-103859581D01*
X130241110Y-103777813D01*
X130236935Y-103698833D01*
X130239622Y-103569982D01*
X130259472Y-103475928D01*
X130298607Y-103411898D01*
X130359146Y-103373119D01*
X130385319Y-103364750D01*
X130490863Y-103356622D01*
X130586744Y-103388308D01*
X130670521Y-103457910D01*
X130739754Y-103563530D01*
X130783628Y-103674604D01*
X130815894Y-103818394D01*
X130820797Y-103945526D01*
X131070181Y-103945526D01*
X131074855Y-103894827D01*
X131055983Y-103736430D01*
X131008061Y-103579299D01*
X130934535Y-103435250D01*
X130853497Y-103330881D01*
X130741904Y-103239246D01*
X130617858Y-103179959D01*
X130488165Y-103152555D01*
X130359631Y-103156570D01*
G37*
X130359631Y-103156570D02*
X130239061Y-103191539D01*
X130133263Y-103256999D01*
X130049043Y-103352484D01*
X130028878Y-103387152D01*
X129983670Y-103516522D01*
X129969855Y-103662664D01*
X129985368Y-103816411D01*
X130028146Y-103968596D01*
X130096126Y-104110053D01*
X130187244Y-104231615D01*
X130227836Y-104270975D01*
X130346552Y-104351263D01*
X130480235Y-104400991D01*
X130618811Y-104418320D01*
X130752202Y-104401407D01*
X130816178Y-104378467D01*
X130906775Y-104316352D01*
X130984564Y-104222885D01*
X131041749Y-104108747D01*
X131061227Y-104042678D01*
X131070181Y-103945526D01*
X130820797Y-103945526D01*
X130800869Y-104052429D01*
X130758642Y-104135531D01*
X130696648Y-104191261D01*
X130617421Y-104216045D01*
X130523492Y-104206312D01*
X130433750Y-104168101D01*
X130380116Y-104120321D01*
X130325220Y-104040121D01*
X130306750Y-104005530D01*
X130272531Y-103929653D01*
X130251979Y-103859581D01*
X130241110Y-103777813D01*
X130236935Y-103698833D01*
X130239622Y-103569982D01*
X130259472Y-103475928D01*
X130298607Y-103411898D01*
X130359146Y-103373119D01*
X130385319Y-103364750D01*
X130490863Y-103356622D01*
X130586744Y-103388308D01*
X130670521Y-103457910D01*
X130739754Y-103563530D01*
X130783628Y-103674604D01*
X130815894Y-103818394D01*
X130820797Y-103945526D01*
X131070181Y-103945526D01*
X131074855Y-103894827D01*
X131055983Y-103736430D01*
X131008061Y-103579299D01*
X130934535Y-103435250D01*
X130853497Y-103330881D01*
X130741904Y-103239246D01*
X130617858Y-103179959D01*
X130488165Y-103152555D01*
X130359631Y-103156570D01*
G36*
X133381866Y-103170598D02*
G01*
X133272994Y-103221279D01*
X133186068Y-103303101D01*
X133122467Y-103410204D01*
X133083570Y-103536729D01*
X133070757Y-103676816D01*
X133085405Y-103824605D01*
X133128893Y-103974235D01*
X133171206Y-104065850D01*
X133230758Y-104154644D01*
X133310203Y-104242483D01*
X133398433Y-104319206D01*
X133484340Y-104374649D01*
X133528915Y-104393109D01*
X133624111Y-104411492D01*
X133730675Y-104416627D01*
X133831090Y-104408699D01*
X133905084Y-104389128D01*
X133979514Y-104340282D01*
X134053291Y-104265106D01*
X134114334Y-104178033D01*
X134149673Y-104096908D01*
X134160686Y-104029530D01*
X134166372Y-103938091D01*
X134165687Y-103844236D01*
X133911144Y-103844236D01*
X133910415Y-103979940D01*
X133889491Y-104081493D01*
X133847014Y-104152658D01*
X133784168Y-104196110D01*
X133731608Y-104218082D01*
X133697164Y-104225013D01*
X133659771Y-104217892D01*
X133617201Y-104203953D01*
X133518106Y-104149205D01*
X133436220Y-104059691D01*
X133374659Y-103940563D01*
X133336538Y-103796973D01*
X133327828Y-103725347D01*
X133328723Y-103619058D01*
X133346386Y-103520159D01*
X133377660Y-103439367D01*
X133419385Y-103387397D01*
X133429285Y-103381092D01*
X133499404Y-103362154D01*
X133586928Y-103363301D01*
X133672837Y-103383041D01*
X133716356Y-103403595D01*
X133789716Y-103471757D01*
X133848944Y-103573020D01*
X133890563Y-103699511D01*
X133911093Y-103843360D01*
X133911144Y-103844236D01*
X134165687Y-103844236D01*
X134165660Y-103840651D01*
X134165295Y-103833146D01*
X134139364Y-103662230D01*
X134083005Y-103509932D01*
X134000379Y-103379772D01*
X133895647Y-103275268D01*
X133772970Y-103199940D01*
X133636510Y-103157307D01*
X133490427Y-103150888D01*
X133381866Y-103170598D01*
G37*
X133381866Y-103170598D02*
X133272994Y-103221279D01*
X133186068Y-103303101D01*
X133122467Y-103410204D01*
X133083570Y-103536729D01*
X133070757Y-103676816D01*
X133085405Y-103824605D01*
X133128893Y-103974235D01*
X133171206Y-104065850D01*
X133230758Y-104154644D01*
X133310203Y-104242483D01*
X133398433Y-104319206D01*
X133484340Y-104374649D01*
X133528915Y-104393109D01*
X133624111Y-104411492D01*
X133730675Y-104416627D01*
X133831090Y-104408699D01*
X133905084Y-104389128D01*
X133979514Y-104340282D01*
X134053291Y-104265106D01*
X134114334Y-104178033D01*
X134149673Y-104096908D01*
X134160686Y-104029530D01*
X134166372Y-103938091D01*
X134165687Y-103844236D01*
X133911144Y-103844236D01*
X133910415Y-103979940D01*
X133889491Y-104081493D01*
X133847014Y-104152658D01*
X133784168Y-104196110D01*
X133731608Y-104218082D01*
X133697164Y-104225013D01*
X133659771Y-104217892D01*
X133617201Y-104203953D01*
X133518106Y-104149205D01*
X133436220Y-104059691D01*
X133374659Y-103940563D01*
X133336538Y-103796973D01*
X133327828Y-103725347D01*
X133328723Y-103619058D01*
X133346386Y-103520159D01*
X133377660Y-103439367D01*
X133419385Y-103387397D01*
X133429285Y-103381092D01*
X133499404Y-103362154D01*
X133586928Y-103363301D01*
X133672837Y-103383041D01*
X133716356Y-103403595D01*
X133789716Y-103471757D01*
X133848944Y-103573020D01*
X133890563Y-103699511D01*
X133911093Y-103843360D01*
X133911144Y-103844236D01*
X134165687Y-103844236D01*
X134165660Y-103840651D01*
X134165295Y-103833146D01*
X134139364Y-103662230D01*
X134083005Y-103509932D01*
X134000379Y-103379772D01*
X133895647Y-103275268D01*
X133772970Y-103199940D01*
X133636510Y-103157307D01*
X133490427Y-103150888D01*
X133381866Y-103170598D01*
G36*
X134584458Y-103156579D02*
G01*
X134488589Y-103196686D01*
X134409150Y-103270499D01*
X134374937Y-103324803D01*
X134335033Y-103442787D01*
X134321321Y-103584163D01*
X134333012Y-103739705D01*
X134369315Y-103900186D01*
X134429439Y-104056381D01*
X134439346Y-104076652D01*
X134499278Y-104170568D01*
X134579178Y-104261244D01*
X134667745Y-104337881D01*
X134753676Y-104389678D01*
X134776021Y-104398358D01*
X134866516Y-104414785D01*
X134968347Y-104412989D01*
X135064613Y-104394766D01*
X135138413Y-104361910D01*
X135141735Y-104359529D01*
X135202325Y-104314733D01*
X135227443Y-104530658D01*
X135240865Y-104646030D01*
X135252055Y-104725953D01*
X135264606Y-104776910D01*
X135282111Y-104805383D01*
X135308162Y-104817853D01*
X135346353Y-104820804D01*
X135388177Y-104820667D01*
X135454535Y-104819050D01*
X135488908Y-104811354D01*
X135501608Y-104793306D01*
X135503124Y-104773042D01*
X135500635Y-104742170D01*
X135493663Y-104675264D01*
X135482919Y-104578299D01*
X135469117Y-104457254D01*
X135452968Y-104318106D01*
X135435184Y-104166834D01*
X135420547Y-104043649D01*
X135168476Y-104043649D01*
X135168128Y-104105948D01*
X135151439Y-104146912D01*
X135114933Y-104176517D01*
X135069259Y-104198665D01*
X134985279Y-104223759D01*
X134907821Y-104217459D01*
X134823815Y-104180375D01*
X134773146Y-104145026D01*
X134730026Y-104096411D01*
X134685950Y-104023819D01*
X134660871Y-103975134D01*
X134620774Y-103890419D01*
X134597234Y-103824262D01*
X134585929Y-103758394D01*
X134582538Y-103674546D01*
X134582417Y-103643521D01*
X134583764Y-103554462D01*
X134589546Y-103496052D01*
X134602376Y-103456645D01*
X134624868Y-103424597D01*
X134633732Y-103414845D01*
X134701462Y-103369489D01*
X134779259Y-103362527D01*
X134861729Y-103392943D01*
X134943481Y-103459721D01*
X134958054Y-103475932D01*
X135014402Y-103558649D01*
X135069105Y-103668843D01*
X135116059Y-103791891D01*
X135149161Y-103913173D01*
X135155962Y-103950044D01*
X135168476Y-104043649D01*
X135420547Y-104043649D01*
X135416478Y-104009414D01*
X135397562Y-103851824D01*
X135379148Y-103700042D01*
X135361949Y-103560046D01*
X135346677Y-103437813D01*
X135334044Y-103339321D01*
X135324762Y-103270547D01*
X135321409Y-103247965D01*
X135308582Y-103167514D01*
X135111584Y-103180250D01*
X135105184Y-103303680D01*
X135098785Y-103427110D01*
X135014988Y-103331911D01*
X134912022Y-103237844D01*
X134802037Y-103177223D01*
X134690895Y-103150113D01*
X134584458Y-103156579D01*
G37*
X134584458Y-103156579D02*
X134488589Y-103196686D01*
X134409150Y-103270499D01*
X134374937Y-103324803D01*
X134335033Y-103442787D01*
X134321321Y-103584163D01*
X134333012Y-103739705D01*
X134369315Y-103900186D01*
X134429439Y-104056381D01*
X134439346Y-104076652D01*
X134499278Y-104170568D01*
X134579178Y-104261244D01*
X134667745Y-104337881D01*
X134753676Y-104389678D01*
X134776021Y-104398358D01*
X134866516Y-104414785D01*
X134968347Y-104412989D01*
X135064613Y-104394766D01*
X135138413Y-104361910D01*
X135141735Y-104359529D01*
X135202325Y-104314733D01*
X135227443Y-104530658D01*
X135240865Y-104646030D01*
X135252055Y-104725953D01*
X135264606Y-104776910D01*
X135282111Y-104805383D01*
X135308162Y-104817853D01*
X135346353Y-104820804D01*
X135388177Y-104820667D01*
X135454535Y-104819050D01*
X135488908Y-104811354D01*
X135501608Y-104793306D01*
X135503124Y-104773042D01*
X135500635Y-104742170D01*
X135493663Y-104675264D01*
X135482919Y-104578299D01*
X135469117Y-104457254D01*
X135452968Y-104318106D01*
X135435184Y-104166834D01*
X135420547Y-104043649D01*
X135168476Y-104043649D01*
X135168128Y-104105948D01*
X135151439Y-104146912D01*
X135114933Y-104176517D01*
X135069259Y-104198665D01*
X134985279Y-104223759D01*
X134907821Y-104217459D01*
X134823815Y-104180375D01*
X134773146Y-104145026D01*
X134730026Y-104096411D01*
X134685950Y-104023819D01*
X134660871Y-103975134D01*
X134620774Y-103890419D01*
X134597234Y-103824262D01*
X134585929Y-103758394D01*
X134582538Y-103674546D01*
X134582417Y-103643521D01*
X134583764Y-103554462D01*
X134589546Y-103496052D01*
X134602376Y-103456645D01*
X134624868Y-103424597D01*
X134633732Y-103414845D01*
X134701462Y-103369489D01*
X134779259Y-103362527D01*
X134861729Y-103392943D01*
X134943481Y-103459721D01*
X134958054Y-103475932D01*
X135014402Y-103558649D01*
X135069105Y-103668843D01*
X135116059Y-103791891D01*
X135149161Y-103913173D01*
X135155962Y-103950044D01*
X135168476Y-104043649D01*
X135420547Y-104043649D01*
X135416478Y-104009414D01*
X135397562Y-103851824D01*
X135379148Y-103700042D01*
X135361949Y-103560046D01*
X135346677Y-103437813D01*
X135334044Y-103339321D01*
X135324762Y-103270547D01*
X135321409Y-103247965D01*
X135308582Y-103167514D01*
X135111584Y-103180250D01*
X135105184Y-103303680D01*
X135098785Y-103427110D01*
X135014988Y-103331911D01*
X134912022Y-103237844D01*
X134802037Y-103177223D01*
X134690895Y-103150113D01*
X134584458Y-103156579D01*
G36*
X131287582Y-103170468D02*
G01*
X131241712Y-103172550D01*
X131227878Y-103174958D01*
X131234785Y-103251472D01*
X131246334Y-103356355D01*
X131261653Y-103483364D01*
X131279867Y-103626260D01*
X131300105Y-103778801D01*
X131321492Y-103934746D01*
X131343156Y-104087856D01*
X131364224Y-104231888D01*
X131383822Y-104360602D01*
X131401077Y-104467758D01*
X131415116Y-104547114D01*
X131425067Y-104592429D01*
X131426985Y-104598128D01*
X131493180Y-104712497D01*
X131581026Y-104790834D01*
X131623696Y-104812811D01*
X131688006Y-104830887D01*
X131765273Y-104840095D01*
X131838684Y-104839662D01*
X131891422Y-104828816D01*
X131897903Y-104825398D01*
X131912923Y-104791235D01*
X131907725Y-104736283D01*
X131893332Y-104688611D01*
X131866544Y-104662995D01*
X131813451Y-104647324D01*
X131803153Y-104645240D01*
X131721369Y-104615198D01*
X131680227Y-104576624D01*
X131667028Y-104540618D01*
X131651145Y-104468179D01*
X131632384Y-104358098D01*
X131610550Y-104209160D01*
X131585452Y-104020156D01*
X131564565Y-103852986D01*
X131544553Y-103689356D01*
X131526274Y-103539773D01*
X131510342Y-103409259D01*
X131497368Y-103302837D01*
X131487965Y-103225530D01*
X131482746Y-103182362D01*
X131481878Y-103174958D01*
X131462429Y-103172166D01*
X131412263Y-103170248D01*
X131354500Y-103169667D01*
X131287582Y-103170468D01*
G37*
X131287582Y-103170468D02*
X131241712Y-103172550D01*
X131227878Y-103174958D01*
X131234785Y-103251472D01*
X131246334Y-103356355D01*
X131261653Y-103483364D01*
X131279867Y-103626260D01*
X131300105Y-103778801D01*
X131321492Y-103934746D01*
X131343156Y-104087856D01*
X131364224Y-104231888D01*
X131383822Y-104360602D01*
X131401077Y-104467758D01*
X131415116Y-104547114D01*
X131425067Y-104592429D01*
X131426985Y-104598128D01*
X131493180Y-104712497D01*
X131581026Y-104790834D01*
X131623696Y-104812811D01*
X131688006Y-104830887D01*
X131765273Y-104840095D01*
X131838684Y-104839662D01*
X131891422Y-104828816D01*
X131897903Y-104825398D01*
X131912923Y-104791235D01*
X131907725Y-104736283D01*
X131893332Y-104688611D01*
X131866544Y-104662995D01*
X131813451Y-104647324D01*
X131803153Y-104645240D01*
X131721369Y-104615198D01*
X131680227Y-104576624D01*
X131667028Y-104540618D01*
X131651145Y-104468179D01*
X131632384Y-104358098D01*
X131610550Y-104209160D01*
X131585452Y-104020156D01*
X131564565Y-103852986D01*
X131544553Y-103689356D01*
X131526274Y-103539773D01*
X131510342Y-103409259D01*
X131497368Y-103302837D01*
X131487965Y-103225530D01*
X131482746Y-103182362D01*
X131481878Y-103174958D01*
X131462429Y-103172166D01*
X131412263Y-103170248D01*
X131354500Y-103169667D01*
X131287582Y-103170468D01*
G36*
X137970002Y-96589158D02*
G01*
X137793890Y-96640631D01*
X137628358Y-96727358D01*
X137491776Y-96837281D01*
X137365103Y-96984733D01*
X137276988Y-97145063D01*
X137225885Y-97322284D01*
X137210246Y-97520409D01*
X137211321Y-97565000D01*
X137217623Y-97670720D01*
X137228903Y-97750368D01*
X137248707Y-97820181D01*
X137280585Y-97896395D01*
X137286512Y-97909138D01*
X137385638Y-98073167D01*
X137515931Y-98215256D01*
X137670572Y-98330205D01*
X137842740Y-98412811D01*
X138001250Y-98454286D01*
X138087968Y-98467029D01*
X138153752Y-98471457D01*
X138218654Y-98467497D01*
X138302724Y-98455077D01*
X138314199Y-98453159D01*
X138486703Y-98403658D01*
X138650684Y-98317583D01*
X138798608Y-98200680D01*
X138922944Y-98058695D01*
X139001423Y-97928787D01*
X139039251Y-97848296D01*
X139063150Y-97782576D01*
X139076884Y-97715748D01*
X139084217Y-97631932D01*
X139087093Y-97567374D01*
X139085845Y-97510223D01*
X138823890Y-97510223D01*
X138805468Y-97663386D01*
X138754684Y-97808554D01*
X138674332Y-97939515D01*
X138567210Y-98050058D01*
X138436114Y-98133972D01*
X138314147Y-98178190D01*
X138208466Y-98191358D01*
X138084854Y-98186650D01*
X137962873Y-98165843D01*
X137879511Y-98138754D01*
X137743918Y-98058784D01*
X137632795Y-97949533D01*
X137548980Y-97818111D01*
X137495309Y-97671627D01*
X137474620Y-97517188D01*
X137489749Y-97361903D01*
X137525350Y-97251377D01*
X137589533Y-97142568D01*
X137681510Y-97038818D01*
X137789553Y-96950737D01*
X137901933Y-96888941D01*
X137941132Y-96875189D01*
X138080297Y-96850415D01*
X138226435Y-96851207D01*
X138363457Y-96876589D01*
X138439292Y-96905459D01*
X138539856Y-96968614D01*
X138637574Y-97054341D01*
X138718097Y-97148928D01*
X138752456Y-97204751D01*
X138807151Y-97355274D01*
X138823890Y-97510223D01*
X139085845Y-97510223D01*
X139083234Y-97390684D01*
X139055024Y-97238102D01*
X138999147Y-97097000D01*
X138934962Y-96987895D01*
X138813080Y-96840129D01*
X138668147Y-96724107D01*
X138505767Y-96640414D01*
X138331546Y-96589635D01*
X138151090Y-96572354D01*
X137970002Y-96589158D01*
G37*
X137970002Y-96589158D02*
X137793890Y-96640631D01*
X137628358Y-96727358D01*
X137491776Y-96837281D01*
X137365103Y-96984733D01*
X137276988Y-97145063D01*
X137225885Y-97322284D01*
X137210246Y-97520409D01*
X137211321Y-97565000D01*
X137217623Y-97670720D01*
X137228903Y-97750368D01*
X137248707Y-97820181D01*
X137280585Y-97896395D01*
X137286512Y-97909138D01*
X137385638Y-98073167D01*
X137515931Y-98215256D01*
X137670572Y-98330205D01*
X137842740Y-98412811D01*
X138001250Y-98454286D01*
X138087968Y-98467029D01*
X138153752Y-98471457D01*
X138218654Y-98467497D01*
X138302724Y-98455077D01*
X138314199Y-98453159D01*
X138486703Y-98403658D01*
X138650684Y-98317583D01*
X138798608Y-98200680D01*
X138922944Y-98058695D01*
X139001423Y-97928787D01*
X139039251Y-97848296D01*
X139063150Y-97782576D01*
X139076884Y-97715748D01*
X139084217Y-97631932D01*
X139087093Y-97567374D01*
X139085845Y-97510223D01*
X138823890Y-97510223D01*
X138805468Y-97663386D01*
X138754684Y-97808554D01*
X138674332Y-97939515D01*
X138567210Y-98050058D01*
X138436114Y-98133972D01*
X138314147Y-98178190D01*
X138208466Y-98191358D01*
X138084854Y-98186650D01*
X137962873Y-98165843D01*
X137879511Y-98138754D01*
X137743918Y-98058784D01*
X137632795Y-97949533D01*
X137548980Y-97818111D01*
X137495309Y-97671627D01*
X137474620Y-97517188D01*
X137489749Y-97361903D01*
X137525350Y-97251377D01*
X137589533Y-97142568D01*
X137681510Y-97038818D01*
X137789553Y-96950737D01*
X137901933Y-96888941D01*
X137941132Y-96875189D01*
X138080297Y-96850415D01*
X138226435Y-96851207D01*
X138363457Y-96876589D01*
X138439292Y-96905459D01*
X138539856Y-96968614D01*
X138637574Y-97054341D01*
X138718097Y-97148928D01*
X138752456Y-97204751D01*
X138807151Y-97355274D01*
X138823890Y-97510223D01*
X139085845Y-97510223D01*
X139083234Y-97390684D01*
X139055024Y-97238102D01*
X138999147Y-97097000D01*
X138934962Y-96987895D01*
X138813080Y-96840129D01*
X138668147Y-96724107D01*
X138505767Y-96640414D01*
X138331546Y-96589635D01*
X138151090Y-96572354D01*
X137970002Y-96589158D01*
G36*
X137798578Y-91764533D02*
G01*
X137496691Y-91825216D01*
X137339122Y-91873937D01*
X137192852Y-91930821D01*
X137047497Y-91997506D01*
X136914209Y-92068251D01*
X136804140Y-92137314D01*
X136754736Y-92174838D01*
X136738327Y-92188261D01*
X136723905Y-92200722D01*
X136710553Y-92215113D01*
X136697358Y-92234323D01*
X136683403Y-92261242D01*
X136667774Y-92298760D01*
X136649554Y-92349768D01*
X136627828Y-92417155D01*
X136601682Y-92503812D01*
X136570199Y-92612629D01*
X136532465Y-92746495D01*
X136487563Y-92908301D01*
X136434579Y-93100937D01*
X136372597Y-93327293D01*
X136300702Y-93590259D01*
X136264528Y-93722565D01*
X136109233Y-94298082D01*
X135967620Y-94838792D01*
X135839818Y-95344124D01*
X135725956Y-95813509D01*
X135626164Y-96246378D01*
X135540570Y-96642160D01*
X135469305Y-97000285D01*
X135412497Y-97320185D01*
X135370276Y-97601288D01*
X135353859Y-97734333D01*
X135331151Y-98003102D01*
X135325652Y-98262793D01*
X135338376Y-98519356D01*
X135370340Y-98778739D01*
X135422559Y-99046891D01*
X135496049Y-99329760D01*
X135591825Y-99633296D01*
X135710902Y-99963448D01*
X135753143Y-100073250D01*
X135811621Y-100216278D01*
X135888230Y-100392555D01*
X135980982Y-100598081D01*
X136087888Y-100828859D01*
X136206959Y-101080890D01*
X136336207Y-101350175D01*
X136473642Y-101632717D01*
X136617278Y-101924517D01*
X136765124Y-102221577D01*
X136915192Y-102519898D01*
X137065493Y-102815482D01*
X137214039Y-103104331D01*
X137358841Y-103382447D01*
X137497911Y-103645830D01*
X137629259Y-103890483D01*
X137750898Y-104112407D01*
X137848153Y-104285416D01*
X137920248Y-104411125D01*
X137975525Y-104504644D01*
X138017847Y-104570723D01*
X138051076Y-104614110D01*
X138079074Y-104639554D01*
X138105704Y-104651805D01*
X138134828Y-104655610D01*
X138149417Y-104655833D01*
X138208882Y-104644296D01*
X138249292Y-104618791D01*
X138284741Y-104570049D01*
X138337194Y-104486338D01*
X138405049Y-104370716D01*
X138486703Y-104226238D01*
X138580552Y-104055962D01*
X138684993Y-103862943D01*
X138798424Y-103650238D01*
X138919241Y-103420904D01*
X139045841Y-103177996D01*
X139176621Y-102924572D01*
X139245981Y-102788882D01*
X138944721Y-102788882D01*
X138872158Y-102923316D01*
X138838529Y-102986020D01*
X138789901Y-103077224D01*
X138731029Y-103187984D01*
X138666667Y-103309357D01*
X138609400Y-103417583D01*
X138537935Y-103552206D01*
X138461749Y-103694728D01*
X138387452Y-103832852D01*
X138321651Y-103954282D01*
X138284621Y-104021969D01*
X138150038Y-104266521D01*
X137968445Y-103937302D01*
X137891613Y-103796722D01*
X137804559Y-103635362D01*
X137716339Y-103470127D01*
X137636011Y-103317926D01*
X137610683Y-103269416D01*
X137550709Y-103154730D01*
X137494373Y-103048114D01*
X137445813Y-102957319D01*
X137409172Y-102890096D01*
X137391048Y-102858210D01*
X137371692Y-102824086D01*
X137365578Y-102806221D01*
X137375954Y-102806734D01*
X137406069Y-102827742D01*
X137459169Y-102871364D01*
X137538503Y-102939718D01*
X137604716Y-102997574D01*
X137745106Y-103119779D01*
X137858060Y-103216087D01*
X137947289Y-103289274D01*
X138016501Y-103342114D01*
X138069407Y-103377385D01*
X138109715Y-103397861D01*
X138141134Y-103406320D01*
X138151773Y-103406960D01*
X138182010Y-103400602D01*
X138223577Y-103379475D01*
X138280892Y-103340446D01*
X138358374Y-103280388D01*
X138460442Y-103196167D01*
X138517786Y-103147669D01*
X138618171Y-103062416D01*
X138711442Y-102983412D01*
X138791225Y-102916038D01*
X138851150Y-102865677D01*
X138883688Y-102838649D01*
X138944721Y-102788882D01*
X139245981Y-102788882D01*
X139309978Y-102663687D01*
X139444309Y-102398398D01*
X139578011Y-102131761D01*
X139709480Y-101866833D01*
X139837114Y-101606671D01*
X139934742Y-101405354D01*
X140057022Y-101151213D01*
X140162552Y-100930362D01*
X140253348Y-100738141D01*
X140331428Y-100569895D01*
X140398810Y-100420966D01*
X140457511Y-100286697D01*
X140509548Y-100162431D01*
X140556938Y-100043510D01*
X140601700Y-99925278D01*
X140645849Y-99803078D01*
X140691405Y-99672251D01*
X140713493Y-99607583D01*
X140815190Y-99284031D01*
X140890937Y-98984204D01*
X140941829Y-98699259D01*
X140968957Y-98420350D01*
X140972210Y-98214763D01*
X140710856Y-98214763D01*
X140707665Y-98362862D01*
X140701135Y-98450099D01*
X140678729Y-98635056D01*
X140646723Y-98824057D01*
X140604088Y-99019817D01*
X140549790Y-99225055D01*
X140482798Y-99442488D01*
X140402082Y-99674833D01*
X140306608Y-99924807D01*
X140195345Y-100195128D01*
X140067263Y-100488513D01*
X139921328Y-100807679D01*
X139756509Y-101155345D01*
X139571775Y-101534226D01*
X139396329Y-101886821D01*
X139282954Y-102112893D01*
X138917269Y-102437756D01*
X138797608Y-102543699D01*
X138674437Y-102652115D01*
X138556029Y-102755768D01*
X138450655Y-102847422D01*
X138366588Y-102919839D01*
X138350500Y-102933554D01*
X138149417Y-103104488D01*
X138011834Y-102984417D01*
X137957022Y-102936581D01*
X137876596Y-102866390D01*
X137776837Y-102779325D01*
X137664023Y-102680867D01*
X137544436Y-102576497D01*
X137461500Y-102504114D01*
X137348809Y-102405426D01*
X137245977Y-102314734D01*
X137157548Y-102236096D01*
X137088066Y-102173572D01*
X137042078Y-102131222D01*
X137024744Y-102113983D01*
X137009874Y-102088032D01*
X136979061Y-102028602D01*
X136934601Y-101940417D01*
X136878791Y-101828200D01*
X136813927Y-101696676D01*
X136742306Y-101550567D01*
X136666226Y-101394597D01*
X136587982Y-101233489D01*
X136509872Y-101071968D01*
X136434192Y-100914756D01*
X136363239Y-100766577D01*
X136299309Y-100632155D01*
X136244701Y-100516213D01*
X136201709Y-100423474D01*
X136186846Y-100390750D01*
X136027283Y-100020660D01*
X135894350Y-99677906D01*
X135786698Y-99358048D01*
X135702980Y-99056651D01*
X135641850Y-98769277D01*
X135601961Y-98491487D01*
X135597699Y-98450099D01*
X135589049Y-98312646D01*
X135588853Y-98159825D01*
X135597501Y-97989298D01*
X135615383Y-97798727D01*
X135642888Y-97585772D01*
X135680406Y-97348096D01*
X135728326Y-97083361D01*
X135787039Y-96789228D01*
X135856933Y-96463358D01*
X135938399Y-96103414D01*
X136031826Y-95707056D01*
X136105391Y-95403249D01*
X136155492Y-95201166D01*
X136210630Y-94983894D01*
X136269792Y-94755066D01*
X136331966Y-94518314D01*
X136396141Y-94277269D01*
X136461302Y-94035564D01*
X136526440Y-93796831D01*
X136590541Y-93564703D01*
X136652593Y-93342810D01*
X136711584Y-93134785D01*
X136766501Y-92944261D01*
X136816333Y-92774870D01*
X136860068Y-92630243D01*
X136896693Y-92514012D01*
X136925196Y-92429811D01*
X136944564Y-92381270D01*
X136950172Y-92371867D01*
X136985772Y-92344793D01*
X137050948Y-92306402D01*
X137136112Y-92261447D01*
X137231676Y-92214681D01*
X137328052Y-92170858D01*
X137415651Y-92134732D01*
X137462240Y-92117991D01*
X137733921Y-92049729D01*
X138019709Y-92017009D01*
X138310825Y-92019755D01*
X138598490Y-92057896D01*
X138869084Y-92129709D01*
X138946448Y-92159535D01*
X139041097Y-92201214D01*
X139141173Y-92248938D01*
X139234822Y-92296900D01*
X139310188Y-92339292D01*
X139348264Y-92364455D01*
X139361765Y-92390748D01*
X139384880Y-92454470D01*
X139416621Y-92552067D01*
X139455998Y-92679983D01*
X139502025Y-92834664D01*
X139553711Y-93012556D01*
X139610070Y-93210103D01*
X139670111Y-93423750D01*
X139732848Y-93649944D01*
X139797290Y-93885128D01*
X139862451Y-94125748D01*
X139927340Y-94368250D01*
X139990971Y-94609079D01*
X140052354Y-94844680D01*
X140110501Y-95071497D01*
X140164423Y-95285977D01*
X140194028Y-95406000D01*
X140296408Y-95830327D01*
X140386490Y-96216588D01*
X140464662Y-96567102D01*
X140531311Y-96884190D01*
X140586822Y-97170174D01*
X140631583Y-97427375D01*
X140665980Y-97658113D01*
X140690400Y-97864710D01*
X140705230Y-98049486D01*
X140710856Y-98214763D01*
X140972210Y-98214763D01*
X140973415Y-98138632D01*
X140956295Y-97845262D01*
X140944975Y-97734333D01*
X140913524Y-97496282D01*
X140868611Y-97220167D01*
X140810685Y-96907904D01*
X140740196Y-96561410D01*
X140657592Y-96182602D01*
X140563323Y-95773399D01*
X140457839Y-95335717D01*
X140341587Y-94871473D01*
X140215018Y-94382585D01*
X140078580Y-93870969D01*
X139932724Y-93338544D01*
X139824254Y-92950927D01*
X139769152Y-92755227D01*
X139723635Y-92595574D01*
X139685172Y-92467449D01*
X139651232Y-92366337D01*
X139619283Y-92287721D01*
X139586794Y-92227085D01*
X139551234Y-92179912D01*
X139510071Y-92141686D01*
X139460774Y-92107890D01*
X139400812Y-92074008D01*
X139327654Y-92035522D01*
X139304322Y-92023234D01*
X139023642Y-91898062D01*
X138726734Y-91809151D01*
X138419592Y-91756956D01*
X138108209Y-91741931D01*
X137798578Y-91764533D01*
G37*
X137798578Y-91764533D02*
X137496691Y-91825216D01*
X137339122Y-91873937D01*
X137192852Y-91930821D01*
X137047497Y-91997506D01*
X136914209Y-92068251D01*
X136804140Y-92137314D01*
X136754736Y-92174838D01*
X136738327Y-92188261D01*
X136723905Y-92200722D01*
X136710553Y-92215113D01*
X136697358Y-92234323D01*
X136683403Y-92261242D01*
X136667774Y-92298760D01*
X136649554Y-92349768D01*
X136627828Y-92417155D01*
X136601682Y-92503812D01*
X136570199Y-92612629D01*
X136532465Y-92746495D01*
X136487563Y-92908301D01*
X136434579Y-93100937D01*
X136372597Y-93327293D01*
X136300702Y-93590259D01*
X136264528Y-93722565D01*
X136109233Y-94298082D01*
X135967620Y-94838792D01*
X135839818Y-95344124D01*
X135725956Y-95813509D01*
X135626164Y-96246378D01*
X135540570Y-96642160D01*
X135469305Y-97000285D01*
X135412497Y-97320185D01*
X135370276Y-97601288D01*
X135353859Y-97734333D01*
X135331151Y-98003102D01*
X135325652Y-98262793D01*
X135338376Y-98519356D01*
X135370340Y-98778739D01*
X135422559Y-99046891D01*
X135496049Y-99329760D01*
X135591825Y-99633296D01*
X135710902Y-99963448D01*
X135753143Y-100073250D01*
X135811621Y-100216278D01*
X135888230Y-100392555D01*
X135980982Y-100598081D01*
X136087888Y-100828859D01*
X136206959Y-101080890D01*
X136336207Y-101350175D01*
X136473642Y-101632717D01*
X136617278Y-101924517D01*
X136765124Y-102221577D01*
X136915192Y-102519898D01*
X137065493Y-102815482D01*
X137214039Y-103104331D01*
X137358841Y-103382447D01*
X137497911Y-103645830D01*
X137629259Y-103890483D01*
X137750898Y-104112407D01*
X137848153Y-104285416D01*
X137920248Y-104411125D01*
X137975525Y-104504644D01*
X138017847Y-104570723D01*
X138051076Y-104614110D01*
X138079074Y-104639554D01*
X138105704Y-104651805D01*
X138134828Y-104655610D01*
X138149417Y-104655833D01*
X138208882Y-104644296D01*
X138249292Y-104618791D01*
X138284741Y-104570049D01*
X138337194Y-104486338D01*
X138405049Y-104370716D01*
X138486703Y-104226238D01*
X138580552Y-104055962D01*
X138684993Y-103862943D01*
X138798424Y-103650238D01*
X138919241Y-103420904D01*
X139045841Y-103177996D01*
X139176621Y-102924572D01*
X139245981Y-102788882D01*
X138944721Y-102788882D01*
X138872158Y-102923316D01*
X138838529Y-102986020D01*
X138789901Y-103077224D01*
X138731029Y-103187984D01*
X138666667Y-103309357D01*
X138609400Y-103417583D01*
X138537935Y-103552206D01*
X138461749Y-103694728D01*
X138387452Y-103832852D01*
X138321651Y-103954282D01*
X138284621Y-104021969D01*
X138150038Y-104266521D01*
X137968445Y-103937302D01*
X137891613Y-103796722D01*
X137804559Y-103635362D01*
X137716339Y-103470127D01*
X137636011Y-103317926D01*
X137610683Y-103269416D01*
X137550709Y-103154730D01*
X137494373Y-103048114D01*
X137445813Y-102957319D01*
X137409172Y-102890096D01*
X137391048Y-102858210D01*
X137371692Y-102824086D01*
X137365578Y-102806221D01*
X137375954Y-102806734D01*
X137406069Y-102827742D01*
X137459169Y-102871364D01*
X137538503Y-102939718D01*
X137604716Y-102997574D01*
X137745106Y-103119779D01*
X137858060Y-103216087D01*
X137947289Y-103289274D01*
X138016501Y-103342114D01*
X138069407Y-103377385D01*
X138109715Y-103397861D01*
X138141134Y-103406320D01*
X138151773Y-103406960D01*
X138182010Y-103400602D01*
X138223577Y-103379475D01*
X138280892Y-103340446D01*
X138358374Y-103280388D01*
X138460442Y-103196167D01*
X138517786Y-103147669D01*
X138618171Y-103062416D01*
X138711442Y-102983412D01*
X138791225Y-102916038D01*
X138851150Y-102865677D01*
X138883688Y-102838649D01*
X138944721Y-102788882D01*
X139245981Y-102788882D01*
X139309978Y-102663687D01*
X139444309Y-102398398D01*
X139578011Y-102131761D01*
X139709480Y-101866833D01*
X139837114Y-101606671D01*
X139934742Y-101405354D01*
X140057022Y-101151213D01*
X140162552Y-100930362D01*
X140253348Y-100738141D01*
X140331428Y-100569895D01*
X140398810Y-100420966D01*
X140457511Y-100286697D01*
X140509548Y-100162431D01*
X140556938Y-100043510D01*
X140601700Y-99925278D01*
X140645849Y-99803078D01*
X140691405Y-99672251D01*
X140713493Y-99607583D01*
X140815190Y-99284031D01*
X140890937Y-98984204D01*
X140941829Y-98699259D01*
X140968957Y-98420350D01*
X140972210Y-98214763D01*
X140710856Y-98214763D01*
X140707665Y-98362862D01*
X140701135Y-98450099D01*
X140678729Y-98635056D01*
X140646723Y-98824057D01*
X140604088Y-99019817D01*
X140549790Y-99225055D01*
X140482798Y-99442488D01*
X140402082Y-99674833D01*
X140306608Y-99924807D01*
X140195345Y-100195128D01*
X140067263Y-100488513D01*
X139921328Y-100807679D01*
X139756509Y-101155345D01*
X139571775Y-101534226D01*
X139396329Y-101886821D01*
X139282954Y-102112893D01*
X138917269Y-102437756D01*
X138797608Y-102543699D01*
X138674437Y-102652115D01*
X138556029Y-102755768D01*
X138450655Y-102847422D01*
X138366588Y-102919839D01*
X138350500Y-102933554D01*
X138149417Y-103104488D01*
X138011834Y-102984417D01*
X137957022Y-102936581D01*
X137876596Y-102866390D01*
X137776837Y-102779325D01*
X137664023Y-102680867D01*
X137544436Y-102576497D01*
X137461500Y-102504114D01*
X137348809Y-102405426D01*
X137245977Y-102314734D01*
X137157548Y-102236096D01*
X137088066Y-102173572D01*
X137042078Y-102131222D01*
X137024744Y-102113983D01*
X137009874Y-102088032D01*
X136979061Y-102028602D01*
X136934601Y-101940417D01*
X136878791Y-101828200D01*
X136813927Y-101696676D01*
X136742306Y-101550567D01*
X136666226Y-101394597D01*
X136587982Y-101233489D01*
X136509872Y-101071968D01*
X136434192Y-100914756D01*
X136363239Y-100766577D01*
X136299309Y-100632155D01*
X136244701Y-100516213D01*
X136201709Y-100423474D01*
X136186846Y-100390750D01*
X136027283Y-100020660D01*
X135894350Y-99677906D01*
X135786698Y-99358048D01*
X135702980Y-99056651D01*
X135641850Y-98769277D01*
X135601961Y-98491487D01*
X135597699Y-98450099D01*
X135589049Y-98312646D01*
X135588853Y-98159825D01*
X135597501Y-97989298D01*
X135615383Y-97798727D01*
X135642888Y-97585772D01*
X135680406Y-97348096D01*
X135728326Y-97083361D01*
X135787039Y-96789228D01*
X135856933Y-96463358D01*
X135938399Y-96103414D01*
X136031826Y-95707056D01*
X136105391Y-95403249D01*
X136155492Y-95201166D01*
X136210630Y-94983894D01*
X136269792Y-94755066D01*
X136331966Y-94518314D01*
X136396141Y-94277269D01*
X136461302Y-94035564D01*
X136526440Y-93796831D01*
X136590541Y-93564703D01*
X136652593Y-93342810D01*
X136711584Y-93134785D01*
X136766501Y-92944261D01*
X136816333Y-92774870D01*
X136860068Y-92630243D01*
X136896693Y-92514012D01*
X136925196Y-92429811D01*
X136944564Y-92381270D01*
X136950172Y-92371867D01*
X136985772Y-92344793D01*
X137050948Y-92306402D01*
X137136112Y-92261447D01*
X137231676Y-92214681D01*
X137328052Y-92170858D01*
X137415651Y-92134732D01*
X137462240Y-92117991D01*
X137733921Y-92049729D01*
X138019709Y-92017009D01*
X138310825Y-92019755D01*
X138598490Y-92057896D01*
X138869084Y-92129709D01*
X138946448Y-92159535D01*
X139041097Y-92201214D01*
X139141173Y-92248938D01*
X139234822Y-92296900D01*
X139310188Y-92339292D01*
X139348264Y-92364455D01*
X139361765Y-92390748D01*
X139384880Y-92454470D01*
X139416621Y-92552067D01*
X139455998Y-92679983D01*
X139502025Y-92834664D01*
X139553711Y-93012556D01*
X139610070Y-93210103D01*
X139670111Y-93423750D01*
X139732848Y-93649944D01*
X139797290Y-93885128D01*
X139862451Y-94125748D01*
X139927340Y-94368250D01*
X139990971Y-94609079D01*
X140052354Y-94844680D01*
X140110501Y-95071497D01*
X140164423Y-95285977D01*
X140194028Y-95406000D01*
X140296408Y-95830327D01*
X140386490Y-96216588D01*
X140464662Y-96567102D01*
X140531311Y-96884190D01*
X140586822Y-97170174D01*
X140631583Y-97427375D01*
X140665980Y-97658113D01*
X140690400Y-97864710D01*
X140705230Y-98049486D01*
X140710856Y-98214763D01*
X140972210Y-98214763D01*
X140973415Y-98138632D01*
X140956295Y-97845262D01*
X140944975Y-97734333D01*
X140913524Y-97496282D01*
X140868611Y-97220167D01*
X140810685Y-96907904D01*
X140740196Y-96561410D01*
X140657592Y-96182602D01*
X140563323Y-95773399D01*
X140457839Y-95335717D01*
X140341587Y-94871473D01*
X140215018Y-94382585D01*
X140078580Y-93870969D01*
X139932724Y-93338544D01*
X139824254Y-92950927D01*
X139769152Y-92755227D01*
X139723635Y-92595574D01*
X139685172Y-92467449D01*
X139651232Y-92366337D01*
X139619283Y-92287721D01*
X139586794Y-92227085D01*
X139551234Y-92179912D01*
X139510071Y-92141686D01*
X139460774Y-92107890D01*
X139400812Y-92074008D01*
X139327654Y-92035522D01*
X139304322Y-92023234D01*
X139023642Y-91898062D01*
X138726734Y-91809151D01*
X138419592Y-91756956D01*
X138108209Y-91741931D01*
X137798578Y-91764533D01*
M02*
