G04 #@! TF.GenerationSoftware,KiCad,Pcbnew,(5.1.5-0-10_14)*
G04 #@! TF.CreationDate,2020-10-11T12:28:21+03:00*
G04 #@! TF.ProjectId,LogiMech,4c6f6769-4d65-4636-982e-6b696361645f,rev?*
G04 #@! TF.SameCoordinates,Original*
G04 #@! TF.FileFunction,Other,ECO1*
%FSLAX46Y46*%
G04 Gerber Fmt 4.6, Leading zero omitted, Abs format (unit mm)*
G04 Created by KiCad (PCBNEW (5.1.5-0-10_14)) date 2020-10-11 12:28:21*
%MOMM*%
%LPD*%
G04 APERTURE LIST*
%ADD10C,0.250000*%
G04 APERTURE END LIST*
D10*
X102037500Y-87750000D02*
X117037500Y-102750000D01*
X102037500Y-102750000D02*
X117037500Y-87750000D01*
X117037500Y-102750000D02*
X102037500Y-102750000D01*
X117037500Y-87750000D02*
X117037500Y-102750000D01*
X102037500Y-87750000D02*
X117037500Y-87750000D01*
X102037500Y-102750000D02*
X102037500Y-87750000D01*
X115137500Y-91450000D02*
G75*
G03X115137500Y-91450000I-600000J0D01*
G01*
X105337500Y-100180000D02*
G75*
G03X105337500Y-100180000I-800000J0D01*
G01*
X110137500Y-89350000D02*
G75*
G03X110137500Y-89350000I-600000J0D01*
G01*
X105137499Y-91450000D02*
G75*
G03X105137499Y-91450000I-599999J0D01*
G01*
X115337500Y-100250000D02*
G75*
G03X115337500Y-100250000I-800000J0D01*
G01*
X106787500Y-101655000D02*
X112287500Y-98704999D01*
X106787500Y-98704999D02*
X112287500Y-101655000D01*
X112287500Y-98704999D02*
X106787500Y-98704999D01*
X112287500Y-101655000D02*
X112287500Y-98704999D01*
X106787500Y-101655000D02*
X112287500Y-101655000D01*
X106787500Y-98704999D02*
X106787500Y-101655000D01*
X112037500Y-95250000D02*
G75*
G03X112037500Y-95250000I-2500000J0D01*
G01*
X112037500Y-76149200D02*
G75*
G03X112037500Y-76149200I-2500000J0D01*
G01*
X106787500Y-79604199D02*
X106787500Y-82554200D01*
X106787500Y-82554200D02*
X112287500Y-82554200D01*
X112287500Y-82554200D02*
X112287500Y-79604199D01*
X112287500Y-79604199D02*
X106787500Y-79604199D01*
X106787500Y-79604199D02*
X112287500Y-82554200D01*
X106787500Y-82554200D02*
X112287500Y-79604199D01*
X115337500Y-81149200D02*
G75*
G03X115337500Y-81149200I-800000J0D01*
G01*
X105137499Y-72349200D02*
G75*
G03X105137499Y-72349200I-599999J0D01*
G01*
X110137500Y-70249200D02*
G75*
G03X110137500Y-70249200I-600000J0D01*
G01*
X105337500Y-81079200D02*
G75*
G03X105337500Y-81079200I-800000J0D01*
G01*
X115137500Y-72349200D02*
G75*
G03X115137500Y-72349200I-600000J0D01*
G01*
X102037500Y-83649200D02*
X102037500Y-68649200D01*
X102037500Y-68649200D02*
X117037500Y-68649200D01*
X117037500Y-68649200D02*
X117037500Y-83649200D01*
X117037500Y-83649200D02*
X102037500Y-83649200D01*
X102037500Y-83649200D02*
X117037500Y-68649200D01*
X102037500Y-68649200D02*
X117037500Y-83649200D01*
X121087500Y-87699200D02*
X136087500Y-102699200D01*
X121087500Y-102699200D02*
X136087500Y-87699200D01*
X136087500Y-102699200D02*
X121087500Y-102699200D01*
X136087500Y-87699200D02*
X136087500Y-102699200D01*
X121087500Y-87699200D02*
X136087500Y-87699200D01*
X121087500Y-102699200D02*
X121087500Y-87699200D01*
X134187500Y-91399200D02*
G75*
G03X134187500Y-91399200I-600000J0D01*
G01*
X124387500Y-100129200D02*
G75*
G03X124387500Y-100129200I-800000J0D01*
G01*
X129187500Y-89299200D02*
G75*
G03X129187500Y-89299200I-600000J0D01*
G01*
X124187499Y-91399200D02*
G75*
G03X124187499Y-91399200I-599999J0D01*
G01*
X134387500Y-100199200D02*
G75*
G03X134387500Y-100199200I-800000J0D01*
G01*
X125837500Y-101604200D02*
X131337500Y-98654199D01*
X125837500Y-98654199D02*
X131337500Y-101604200D01*
X131337500Y-98654199D02*
X125837500Y-98654199D01*
X131337500Y-101604200D02*
X131337500Y-98654199D01*
X125837500Y-101604200D02*
X131337500Y-101604200D01*
X125837500Y-98654199D02*
X125837500Y-101604200D01*
X131087500Y-95199200D02*
G75*
G03X131087500Y-95199200I-2500000J0D01*
G01*
X131087500Y-76149200D02*
G75*
G03X131087500Y-76149200I-2500000J0D01*
G01*
X125837500Y-79604199D02*
X125837500Y-82554200D01*
X125837500Y-82554200D02*
X131337500Y-82554200D01*
X131337500Y-82554200D02*
X131337500Y-79604199D01*
X131337500Y-79604199D02*
X125837500Y-79604199D01*
X125837500Y-79604199D02*
X131337500Y-82554200D01*
X125837500Y-82554200D02*
X131337500Y-79604199D01*
X134387500Y-81149200D02*
G75*
G03X134387500Y-81149200I-800000J0D01*
G01*
X124187499Y-72349200D02*
G75*
G03X124187499Y-72349200I-599999J0D01*
G01*
X129187500Y-70249200D02*
G75*
G03X129187500Y-70249200I-600000J0D01*
G01*
X124387500Y-81079200D02*
G75*
G03X124387500Y-81079200I-800000J0D01*
G01*
X134187500Y-72349200D02*
G75*
G03X134187500Y-72349200I-600000J0D01*
G01*
X121087500Y-83649200D02*
X121087500Y-68649200D01*
X121087500Y-68649200D02*
X136087500Y-68649200D01*
X136087500Y-68649200D02*
X136087500Y-83649200D01*
X136087500Y-83649200D02*
X121087500Y-83649200D01*
X121087500Y-83649200D02*
X136087500Y-68649200D01*
X121087500Y-68649200D02*
X136087500Y-83649200D01*
X140137500Y-87699200D02*
X155137500Y-102699200D01*
X140137500Y-102699200D02*
X155137500Y-87699200D01*
X155137500Y-102699200D02*
X140137500Y-102699200D01*
X155137500Y-87699200D02*
X155137500Y-102699200D01*
X140137500Y-87699200D02*
X155137500Y-87699200D01*
X140137500Y-102699200D02*
X140137500Y-87699200D01*
X153237500Y-91399200D02*
G75*
G03X153237500Y-91399200I-600000J0D01*
G01*
X143437500Y-100129200D02*
G75*
G03X143437500Y-100129200I-800000J0D01*
G01*
X148237500Y-89299200D02*
G75*
G03X148237500Y-89299200I-600000J0D01*
G01*
X143237499Y-91399200D02*
G75*
G03X143237499Y-91399200I-599999J0D01*
G01*
X153437500Y-100199200D02*
G75*
G03X153437500Y-100199200I-800000J0D01*
G01*
X144887500Y-101604200D02*
X150387500Y-98654199D01*
X144887500Y-98654199D02*
X150387500Y-101604200D01*
X150387500Y-98654199D02*
X144887500Y-98654199D01*
X150387500Y-101604200D02*
X150387500Y-98654199D01*
X144887500Y-101604200D02*
X150387500Y-101604200D01*
X144887500Y-98654199D02*
X144887500Y-101604200D01*
X150137500Y-95199200D02*
G75*
G03X150137500Y-95199200I-2500000J0D01*
G01*
X150137500Y-76149200D02*
G75*
G03X150137500Y-76149200I-2500000J0D01*
G01*
X144887500Y-79604199D02*
X144887500Y-82554200D01*
X144887500Y-82554200D02*
X150387500Y-82554200D01*
X150387500Y-82554200D02*
X150387500Y-79604199D01*
X150387500Y-79604199D02*
X144887500Y-79604199D01*
X144887500Y-79604199D02*
X150387500Y-82554200D01*
X144887500Y-82554200D02*
X150387500Y-79604199D01*
X153437500Y-81149200D02*
G75*
G03X153437500Y-81149200I-800000J0D01*
G01*
X143237499Y-72349200D02*
G75*
G03X143237499Y-72349200I-599999J0D01*
G01*
X148237500Y-70249200D02*
G75*
G03X148237500Y-70249200I-600000J0D01*
G01*
X143437500Y-81079200D02*
G75*
G03X143437500Y-81079200I-800000J0D01*
G01*
X153237500Y-72349200D02*
G75*
G03X153237500Y-72349200I-600000J0D01*
G01*
X140137500Y-83649200D02*
X140137500Y-68649200D01*
X140137500Y-68649200D02*
X155137500Y-68649200D01*
X155137500Y-68649200D02*
X155137500Y-83649200D01*
X155137500Y-83649200D02*
X140137500Y-83649200D01*
X140137500Y-83649200D02*
X155137500Y-68649200D01*
X140137500Y-68649200D02*
X155137500Y-83649200D01*
M02*
